<?xml version="1.0" standalone="no"?>
<!DOCTYPE svg PUBLIC "-//W3C//DTD SVG 20010904//EN"
 "http://www.w3.org/TR/2001/REC-SVG-20010904/DTD/svg10.dtd">
<svg version="1.0" xmlns="http://www.w3.org/2000/svg"
 width="1458.000000pt" height="1800.000000pt" viewBox="0 0 1458.000000 1800.000000"
 preserveAspectRatio="xMidYMid meet">
<metadata>
Created by potrace 1.16, written by Peter Selinger 2001-2019
</metadata>
<g transform="translate(0.000000,1800.000000) scale(0.100000,-0.100000)"
fill="#000000" stroke="none">
<path d="M9276 17333 c-15 -4 -16 -7 -5 -13 11 -7 9 -10 -6 -16 -43 -15 -45
-24 -20 -65 29 -45 30 -49 10 -49 -8 0 -15 5 -15 10 0 6 -9 10 -20 10 -11 0
-20 -4 -20 -9 0 -14 59 -61 76 -61 8 0 17 -7 20 -15 4 -8 13 -15 20 -15 8 0
17 -7 20 -15 4 -8 10 -15 15 -15 5 0 9 7 9 15 0 8 -6 15 -12 15 -10 0 -9 3 1
9 11 7 9 10 -8 16 -13 4 -21 13 -19 23 4 23 65 25 77 4 8 -14 13 -13 36 11 21
21 33 25 54 20 14 -3 28 -10 29 -15 2 -4 8 -6 13 -2 5 3 9 -11 9 -30 0 -35
-13 -55 -25 -36 -3 5 -1 10 4 10 6 0 11 5 11 12 0 6 -3 9 -6 6 -3 -4 -15 3
-27 15 -15 15 -22 17 -25 8 -2 -7 1 -17 8 -21 7 -4 9 -13 6 -19 -4 -6 -2 -11
3 -11 6 0 11 -7 11 -16 0 -15 -2 -15 -25 0 -41 27 -75 18 -38 -10 17 -12 17
-14 -6 -44 -19 -26 -21 -34 -10 -41 23 -15 29 -10 29 21 0 21 5 30 18 32 28 2
36 1 61 -7 14 -4 21 -3 18 3 -8 12 13 132 23 132 4 0 10 -22 14 -50 5 -34 11
-50 21 -50 8 0 15 6 15 14 0 10 15 17 44 21 33 5 46 13 54 31 10 21 8 25 -21
39 -18 8 -45 33 -60 55 -16 22 -35 40 -43 40 -8 0 -13 4 -9 9 3 5 -7 12 -22
14 l-28 4 27 2 c20 1 26 5 22 16 -6 15 -33 19 -70 9 -16 -4 -20 -11 -16 -31 4
-22 9 -24 36 -20 17 3 25 3 19 0 -7 -2 -13 -15 -13 -28 0 -20 -7 -25 -35 -31
-19 -3 -42 -3 -51 0 -10 4 -14 1 -12 -6 5 -14 -15 -38 -30 -38 -20 0 -21 30
-2 42 20 13 28 38 12 38 -4 0 -20 -6 -35 -12 -19 -9 -26 -19 -23 -30 8 -32
-31 -21 -48 14 -9 17 -16 33 -16 35 0 3 21 3 47 1 43 -3 47 -1 53 22 3 14 12
26 20 26 8 1 24 3 35 4 l20 1 -20 9 c-38 16 -65 11 -75 -14 -5 -13 -12 -26
-17 -29 -11 -7 -38 14 -46 36 -7 18 -9 18 -41 10z"/>
<path d="M9910 17323 c-8 -13 -13 -14 -16 -5 -11 24 -26 11 -22 -18 3 -17 1
-33 -4 -36 -16 -10 -7 -41 16 -54 21 -11 27 -10 41 4 9 9 21 16 26 16 5 0 9 7
9 15 0 8 7 15 15 15 8 0 15 -4 15 -10 0 -16 48 -12 83 7 30 16 31 18 9 21 -12
2 -20 8 -17 13 4 5 -10 9 -30 9 -22 0 -34 -4 -30 -10 3 -5 1 -10 -4 -10 -6 0
-11 5 -11 10 0 6 -7 10 -15 10 -8 0 -15 -9 -15 -20 0 -11 -7 -20 -15 -20 -7 0
-18 -8 -24 -17 -16 -29 -22 -8 -7 22 8 16 13 32 10 37 -3 4 4 8 15 8 10 0 21
6 24 13 3 9 7 9 19 -1 11 -9 18 -10 23 -2 9 15 102 13 109 -2 5 -10 7 -10 12
0 8 16 29 15 44 -3 7 -8 26 -15 42 -15 19 0 27 -4 22 -12 -4 -7 -3 -8 4 -4 22
13 0 36 -33 36 -19 0 -37 5 -40 10 -4 6 -57 10 -125 10 -102 0 -121 -2 -130
-17z"/>
<path d="M11905 17329 c-15 -7 -11 -8 15 -3 23 3 30 2 21 -4 -11 -8 -11 -10 0
-15 8 -2 -8 -4 -35 -3 -53 1 -51 4 -63 -81 -5 -39 -4 -43 16 -43 14 0 21 -6
21 -20 0 -26 -40 -28 -41 -2 0 12 -3 10 -10 -7 -7 -18 -6 -27 3 -33 10 -6 10
-8 -1 -8 -10 0 -12 -9 -8 -35 4 -26 2 -35 -8 -35 -7 0 -15 3 -18 8 -2 4 -2 1
0 -6 2 -8 -6 -16 -17 -19 -22 -6 -28 -23 -8 -23 9 0 9 -3 0 -12 -7 -7 -12 -20
-12 -30 0 -10 -5 -18 -11 -18 -17 0 -4 -82 15 -96 9 -6 16 -16 16 -23 0 -6 7
-11 16 -11 8 0 13 -4 10 -9 -9 -15 17 -28 54 -27 31 1 35 5 38 29 3 23 -2 30
-32 42 -19 8 -51 15 -71 15 -33 0 -35 2 -25 21 9 15 8 24 -1 35 -10 12 -6 14
24 14 20 0 39 -4 42 -10 3 -5 -1 -10 -9 -10 -9 0 -16 -5 -16 -11 0 -5 8 -9 18
-7 9 1 23 -1 30 -6 7 -4 18 -4 25 1 19 14 117 17 117 4 0 -7 -14 -9 -40 -5
-33 5 -40 4 -40 -10 0 -9 5 -16 10 -16 6 0 5 -8 -2 -19 -9 -15 -9 -23 1 -35
11 -13 10 -18 -4 -32 -9 -9 -15 -26 -13 -38 1 -11 -1 -27 -6 -34 -5 -8 -2 -20
8 -31 20 -22 20 -28 -1 -34 -14 -4 -13 -5 3 -6 26 -1 39 -28 23 -47 -14 -18
-39 -6 -39 18 0 12 -9 22 -22 26 -21 5 -21 6 -2 13 18 7 18 8 -2 8 -11 1 -24
4 -28 9 -4 4 -18 7 -29 7 -12 0 -23 5 -24 10 -2 6 17 10 42 10 49 0 50 1 41
47 -5 25 -9 29 -18 20 -18 -18 -42 -15 -72 9 -15 12 -30 19 -33 16 -8 -9 7
-27 23 -27 21 0 7 -19 -22 -30 -29 -12 -32 -45 -4 -60 11 -6 17 -16 14 -25 -5
-12 3 -15 32 -16 22 -1 45 -1 53 0 25 4 5 -24 -30 -40 -40 -20 -75 -11 -71 17
2 18 2 18 -11 2 -17 -21 -27 -14 -27 19 0 19 -5 23 -32 23 -18 1 -44 7 -58 15
-25 14 -24 14 18 15 26 0 42 -4 42 -12 0 -8 5 -7 16 4 14 14 14 19 -10 57 -33
52 -33 58 7 67 17 4 26 9 20 11 -7 3 -13 11 -13 18 0 21 -78 17 -90 -4 -5 -9
-10 -11 -10 -6 0 6 -11 11 -24 11 -20 2 -27 -6 -42 -45 -9 -25 -21 -49 -26
-52 -5 -3 -1 -12 8 -20 14 -11 18 -11 29 5 8 10 18 15 24 11 18 -10 12 -30
-11 -40 -29 -13 -35 -41 -13 -65 11 -12 13 -20 6 -25 -19 -11 -31 5 -31 41 0
27 -4 34 -20 34 -12 0 -26 12 -35 30 -13 25 -22 30 -53 30 l-37 1 25 19 c14
11 30 24 37 30 7 5 19 7 28 3 20 -7 37 15 29 39 -3 9 2 31 10 47 18 34 21 75
6 66 -6 -4 -8 -11 -5 -16 9 -14 -59 -11 -80 5 -12 8 -16 20 -13 34 4 14 2 19
-7 15 -8 -2 -24 1 -37 8 l-23 12 24 -27 c23 -24 23 -27 8 -44 -23 -25 -21 -32
8 -32 30 0 33 -15 5 -30 -14 -8 -25 -7 -39 2 -11 7 -23 9 -27 6 -11 -12 7 -28
32 -28 13 0 24 -4 24 -9 0 -13 -25 -21 -68 -22 -20 -1 -29 -3 -19 -6 20 -5 22
-24 5 -41 -8 -8 -8 -15 0 -24 8 -10 4 -13 -16 -14 -15 -1 -22 0 -16 3 19 7 3
43 -21 49 -28 7 -38 40 -22 73 14 30 58 55 68 39 9 -14 29 -1 29 18 0 8 6 14
14 14 22 0 30 19 11 26 -9 4 -21 -1 -29 -11 -7 -10 -18 -15 -25 -11 -9 6 -9
11 0 22 6 8 9 14 5 14 -3 0 3 9 14 20 27 27 26 52 -2 48 -13 -2 -24 -10 -24
-18 -4 -46 -4 -46 -15 -27 -19 33 -50 15 -83 -48 -14 -26 -16 -27 -16 -8 0 12
-3 29 -7 39 -5 14 -2 16 17 11 21 -5 22 -3 17 28 -4 26 -2 33 8 29 7 -3 16 -1
20 5 3 6 15 11 25 11 13 0 17 5 14 15 -4 9 0 15 10 15 10 0 16 9 16 25 0 28
-24 34 -38 9 -5 -9 -25 -17 -48 -18 -21 -1 -52 -8 -67 -14 -16 -7 -37 -12 -49
-12 -14 0 -18 -5 -14 -16 3 -9 6 -18 6 -20 0 -2 12 -4 26 -4 15 0 23 4 19 11
-4 6 2 5 14 -3 28 -17 27 -46 -1 -57 -13 -5 -22 -12 -20 -17 2 -5 -1 -10 -7
-12 -6 -2 -11 1 -11 7 0 6 -13 11 -30 11 -20 0 -30 5 -30 15 0 8 5 15 11 15 5
0 7 5 4 11 -5 7 -14 4 -26 -7 -23 -21 -24 -34 -3 -34 12 0 15 -7 12 -30 -5
-34 7 -41 17 -10 9 27 45 27 45 0 0 -24 42 -44 77 -37 17 3 23 0 23 -14 0 -13
-5 -16 -16 -12 -10 4 -20 0 -26 -10 -5 -10 -18 -17 -30 -17 -16 0 -19 -5 -15
-21 4 -16 1 -20 -16 -17 -12 1 -37 -4 -54 -11 -18 -7 -39 -11 -48 -7 -9 3 -15
0 -15 -9 0 -27 -30 -14 -49 22 -15 30 -14 33 10 30 31 -3 34 17 8 42 -13 12
-19 21 -13 22 12 1 -28 17 -45 18 -11 1 -11 -2 -1 -14 18 -22 11 -25 -63 -31
-60 -4 -66 -3 -81 21 -9 14 -25 25 -36 25 -24 0 -33 15 -25 40 8 25 35 26 35
1 0 -16 5 -18 34 -11 19 4 65 6 102 3 60 -4 66 -2 54 11 -9 12 -9 16 -1 16 7
0 22 10 34 23 12 13 30 21 40 19 9 -2 17 1 17 7 0 5 9 13 20 16 11 4 18 10 15
15 -3 5 3 13 12 19 15 9 16 12 4 20 -19 12 -6 41 19 41 21 0 27 14 11 24 -18
11 -42 -7 -48 -36 -4 -22 -10 -28 -27 -26 -16 2 -22 -3 -24 -22 -4 -26 -22
-53 -22 -32 0 7 -10 12 -21 12 -17 0 -20 4 -15 23 3 12 6 32 6 43 0 13 8 24
19 27 10 2 23 17 28 33 l10 29 -83 3 c-71 3 -84 1 -84 -12 0 -12 11 -16 44
-16 25 0 48 5 51 10 4 6 11 8 16 4 6 -3 -1 -16 -15 -29 -23 -21 -25 -29 -19
-71 6 -45 5 -46 -17 -39 -13 4 -20 3 -17 -2 10 -16 -7 -30 -45 -36 -31 -5 -40
-2 -48 14 -12 22 -6 39 16 39 8 0 14 9 14 21 0 37 -31 17 -47 -31 -11 -32 -12
-49 -5 -61 12 -19 6 -29 -16 -29 -9 0 -13 7 -9 20 4 17 2 18 -14 9 -10 -5 -19
-13 -19 -17 0 -4 -12 -12 -26 -19 -22 -10 -25 -10 -20 3 3 9 1 12 -4 9 -6 -3
-10 -13 -10 -21 0 -20 -13 -18 -33 6 -9 11 -31 23 -47 26 -17 4 -32 15 -36 26
-3 11 -21 26 -40 34 -40 17 -47 17 -39 4 3 -5 15 -10 26 -10 28 0 23 -17 -7
-24 -18 -5 -23 -10 -16 -19 5 -7 8 -20 7 -29 -2 -11 3 -18 11 -18 9 0 12 5 9
10 -3 6 -1 10 4 10 6 0 11 -6 11 -12 0 -9 3 -8 10 2 12 20 23 6 23 -29 0 -28
2 -29 35 -24 37 7 52 -6 52 -45 l0 -23 29 20 c16 12 34 21 39 21 16 0 23 -46
12 -75 -5 -14 -10 -37 -10 -51 0 -13 -4 -24 -10 -24 -5 0 -10 9 -10 20 0 18
-3 19 -20 10 -28 -15 -7 -49 26 -42 14 2 24 0 24 -7 0 -6 -9 -11 -19 -11 -11
0 -26 -3 -35 -6 -12 -5 -16 0 -16 20 0 24 -3 25 -42 24 -24 -1 -51 2 -60 6
-13 6 -19 2 -24 -18 -3 -14 -12 -30 -20 -37 -11 -9 -14 -7 -14 14 0 14 7 30
16 35 9 5 17 22 18 39 2 16 6 35 10 41 8 13 -24 32 -53 32 -16 0 -21 7 -22 28
-1 15 -1 31 0 36 1 5 -8 28 -20 51 -20 38 -21 46 -10 74 8 17 17 31 21 31 12
0 20 28 14 45 -7 17 -49 20 -59 5 -3 -5 -24 -10 -46 -10 -32 0 -39 -3 -39 -20
0 -16 -7 -20 -34 -20 -18 0 -39 -7 -46 -15 -17 -20 -3 -76 21 -82 19 -5 23
-14 19 -47 -1 -10 4 -23 12 -27 22 -14 75 -10 82 6 7 18 36 20 37 3 0 -7 2
-23 3 -35 2 -21 -1 -22 -43 -17 -76 9 -91 14 -91 30 0 14 -7 15 -37 10 -21 -3
-47 -8 -58 -11 -19 -6 -20 -1 -21 95 0 67 3 99 10 97 6 -2 13 -14 17 -28 6
-21 7 -19 8 11 1 22 11 46 28 65 l26 29 17 -22 c19 -22 50 -30 50 -12 0 6 10
10 23 11 21 1 21 1 -3 9 l-25 7 30 8 c43 11 47 15 34 31 -6 8 -8 14 -4 14 4 0
2 7 -5 15 -7 8 -18 15 -24 15 -6 0 -4 -5 4 -10 11 -7 6 -10 -20 -10 -26 0 -31
-3 -20 -10 23 -15 -2 -32 -41 -28 -25 2 -34 8 -33 21 1 9 -5 17 -12 17 -19 0
-71 -54 -76 -77 -2 -10 -17 -22 -33 -28 -50 -17 -57 -52 -9 -42 14 2 27 1 29
-3 9 -15 -6 -39 -21 -33 -8 3 -20 1 -27 -5 -30 -24 -67 -23 -94 2 -15 14 -30
23 -35 20 -4 -3 -8 2 -8 10 0 9 5 15 12 14 18 -4 22 34 4 44 -8 5 -13 15 -10
23 4 8 1 15 -5 15 -7 0 -16 12 -22 28 -10 28 -55 57 -65 41 -10 -17 -24 -9
-24 15 0 34 -17 76 -31 76 -6 0 -9 -7 -6 -14 4 -10 1 -13 -8 -9 -8 3 -13 9
-10 13 3 5 1 11 -5 15 -5 3 -10 -3 -10 -14 0 -11 -7 -24 -17 -29 -10 -6 -14
-16 -10 -26 8 -20 27 -12 27 10 0 8 5 14 10 14 14 0 13 -23 -2 -56 -10 -22
-10 -28 0 -32 6 -2 12 -10 12 -18 0 -20 23 -17 50 6 29 25 60 26 60 2 0 -10
-5 -23 -12 -30 -9 -9 -8 -12 5 -12 13 0 17 -9 17 -35 0 -33 -1 -35 -27 -29
-16 4 -33 13 -40 21 -20 26 -65 45 -77 33 -8 -8 -5 -12 10 -16 19 -5 21 -14
22 -72 2 -51 -1 -63 -9 -49 -13 22 -74 24 -65 2 3 -9 -3 -23 -14 -32 -27 -24
-16 -33 40 -33 46 0 50 -2 56 -27 9 -37 20 -43 74 -42 29 1 38 3 25 7 -60 20
-88 77 -38 77 11 1 28 6 36 13 12 10 17 10 23 1 4 -7 0 -17 -9 -24 -10 -7 -17
-17 -17 -23 0 -6 -6 -12 -12 -15 -7 -2 -10 -8 -6 -12 10 -10 65 13 72 31 9 22
22 17 47 -20 20 -30 28 -34 53 -29 24 5 28 3 23 -10 -7 -18 14 -65 35 -79 10
-7 9 -11 -4 -19 -10 -5 -18 -21 -18 -33 0 -17 -7 -26 -25 -30 -18 -5 -25 -13
-25 -31 0 -14 -5 -25 -11 -25 -7 0 -9 10 -7 25 3 14 1 25 -3 25 -5 0 -9 -7 -9
-15 0 -8 -5 -15 -10 -15 -6 0 -13 7 -16 15 -4 8 -10 15 -16 15 -5 0 -6 -6 -2
-12 5 -9 2 -9 -9 1 -26 21 -21 29 21 33 53 4 46 22 -11 26 -41 3 -47 5 -37 18
14 16 46 19 55 4 12 -19 34 -10 37 17 4 35 28 43 28 9 0 -31 16 -43 23 -17 7
28 -32 63 -55 50 -12 -7 -24 -6 -37 1 -11 5 -37 10 -58 10 -21 0 -63 7 -93 16
-92 25 -100 27 -100 16 0 -6 19 -16 43 -22 71 -19 77 -21 77 -31 0 -14 -50
-11 -50 4 0 6 -5 4 -11 -6 -7 -12 -17 -16 -29 -12 -15 5 -21 0 -26 -21 -5 -19
-3 -29 5 -32 9 -3 8 -9 -4 -22 -9 -10 -15 -29 -13 -42 3 -20 8 -23 53 -24 93
-1 111 -3 95 -14 -8 -5 -25 -10 -37 -10 -16 0 -21 -4 -17 -15 4 -9 0 -15 -7
-15 -9 0 -10 -3 -4 -8 6 -4 10 -14 10 -22 0 -8 10 -19 23 -25 27 -12 30 -45 4
-45 -10 0 -23 -5 -30 -12 -8 -8 -12 -9 -12 -1 0 6 6 14 13 17 10 5 10 7 0 12
-7 3 -13 13 -13 22 -1 25 -25 52 -46 52 -17 0 -19 -6 -16 -40 4 -44 -6 -59
-55 -79 -28 -11 -34 -11 -48 3 -19 18 -15 20 48 31 23 4 37 11 37 20 0 10 -12
15 -37 16 -21 0 -47 4 -58 9 -18 7 -19 8 -3 15 10 4 15 11 12 16 -8 14 26 23
38 11 8 -8 17 -8 30 -1 27 15 22 35 -9 34 -23 0 -28 4 -26 22 1 12 14 38 28
59 26 38 33 74 15 74 -5 0 -10 11 -10 25 0 14 -8 29 -20 35 -11 6 -20 19 -20
30 0 10 -8 21 -17 24 -10 3 -6 4 9 2 24 -3 26 -1 17 15 -5 11 -14 19 -19 19
-6 0 -10 7 -10 16 0 9 -6 14 -12 11 -8 -2 -13 -21 -14 -43 0 -21 -4 -52 -8
-68 -7 -27 -8 -27 -21 -10 -13 18 -14 18 -15 2 0 -12 -7 -18 -22 -17 -17 1
-19 2 -5 6 22 6 22 29 1 37 -14 5 -13 10 10 31 30 28 32 40 11 61 -13 14 -16
12 -27 -10 -11 -25 -29 -31 -85 -27 -11 1 -24 -3 -28 -8 -3 -6 0 -11 7 -11 8
0 7 -5 -4 -17 -14 -13 -20 -14 -32 -4 -27 23 -49 9 -53 -34 -5 -46 -11 -55
-23 -35 -7 11 -9 1 -8 -30 0 -25 3 -35 5 -22 3 16 9 22 20 18 8 -3 21 -6 29
-6 11 0 13 -6 8 -22 -10 -33 -21 -37 -81 -31 -43 5 -53 3 -53 -10 0 -8 11 -18
25 -21 27 -7 34 -26 10 -26 -28 0 -15 -18 15 -22 21 -3 29 -1 26 7 -6 17 10
39 23 31 6 -4 8 -18 5 -30 -5 -20 -1 -24 25 -29 17 -4 31 -12 31 -18 0 -15
-70 -5 -80 11 -9 14 -72 -1 -78 -18 -3 -11 20 -16 64 -15 6 0 12 -10 12 -23 0
-28 -10 -31 -29 -8 -10 12 -23 14 -58 9 l-46 -7 24 26 c29 31 32 77 7 105 -19
21 -14 41 10 41 12 0 15 11 13 53 -1 29 1 59 5 65 10 17 26 15 26 -3 0 -8 -4
-15 -10 -15 -5 0 -10 -18 -10 -40 0 -29 4 -40 15 -40 11 0 15 11 15 40 0 22 5
40 10 40 6 0 10 19 10 43 0 42 -1 43 -35 44 -25 1 -36 -4 -40 -18 -4 -10 -11
-19 -16 -19 -14 0 -11 28 4 37 8 4 17 16 20 27 6 15 10 16 22 6 10 -9 15 -9
15 -1 0 6 9 11 21 11 11 0 17 -4 14 -10 -3 -5 1 -10 9 -10 24 0 19 17 -10 36
-17 12 -24 23 -20 37 4 17 1 18 -38 13 -36 -6 -45 -3 -63 17 -12 15 -37 27
-62 31 -22 3 -41 11 -41 16 0 13 22 13 54 0 14 -5 26 -6 26 -1 0 5 -16 12 -36
16 -30 5 -41 2 -58 -14 -18 -19 -18 -21 -3 -21 9 0 17 -4 17 -10 0 -5 11 -10
23 -10 49 0 37 -15 -20 -26 -58 -10 -58 -10 -30 -24 15 -7 27 -17 27 -22 0
-12 -88 -10 -95 2 -3 6 -2 10 4 10 5 0 3 14 -5 30 -18 35 -30 37 -60 9 -15
-14 -39 -21 -80 -25 -68 -5 -95 6 -75 29 7 9 8 18 3 21 -6 3 -13 -4 -17 -17
-8 -26 -8 -51 1 -169 5 -65 3 -92 -6 -103 -12 -14 -15 -14 -31 1 -26 23 -39 9
-39 -42 0 -44 -1 -45 -27 -40 -16 3 -45 8 -66 12 -20 3 -40 10 -43 15 -7 12
-34 11 -34 -1 0 -5 6 -10 14 -10 7 0 23 -13 35 -29 13 -17 29 -27 37 -24 8 3
14 0 14 -7 0 -10 3 -10 15 0 8 7 15 9 15 5 0 -4 6 -2 13 4 18 14 28 4 22 -23
-8 -35 7 -48 41 -36 26 9 27 9 10 -4 -17 -14 -16 -17 20 -55 37 -40 82 -57 70
-26 -7 19 13 19 38 0 20 -15 20 -15 1 -29 -11 -8 -24 -12 -30 -9 -5 2 7 -11
27 -30 31 -28 46 -34 83 -35 25 0 45 4 45 9 0 5 -6 9 -12 9 -10 0 -10 2 0 9
14 9 -14 31 -66 53 l-27 11 30 6 30 7 -27 18 c-16 10 -28 22 -28 27 0 14 28
11 34 -3 4 -7 4 -2 0 12 -10 45 -9 55 4 52 15 -3 5 49 -12 60 -27 18 -36 -1
-11 -22 14 -12 14 -15 -1 -31 -20 -22 -34 -16 -27 11 4 14 0 20 -11 20 -9 0
-16 -4 -16 -10 0 -5 -18 -10 -40 -10 -40 0 -40 0 -40 39 0 34 3 38 20 34 23
-6 26 -19 8 -26 -7 -2 2 -6 20 -9 26 -4 32 -1 32 13 0 13 9 19 33 21 19 2 31
8 29 16 -1 6 2 12 8 12 5 0 10 9 10 21 0 13 5 19 13 15 6 -3 20 -9 30 -12 26
-9 21 -21 -13 -27 -16 -4 -30 -11 -30 -17 0 -6 14 -13 30 -16 17 -4 30 -10 30
-15 0 -5 5 -9 10 -9 6 0 10 11 10 24 0 13 7 26 15 30 8 3 15 13 15 21 0 12 6
15 23 9 12 -3 24 -11 25 -15 2 -5 22 -9 45 -10 23 0 35 -3 27 -6 -8 -3 -26
-10 -40 -15 -23 -9 -24 -11 -8 -22 18 -14 14 -26 -9 -26 -7 0 -13 11 -13 26 0
37 -29 27 -53 -19 -15 -30 -22 -35 -33 -26 -10 8 -14 8 -14 0 0 -6 5 -11 10
-11 15 0 12 -36 -4 -49 -10 -8 -16 -9 -21 -1 -3 5 2 10 11 10 10 0 15 3 11 6
-3 3 -14 3 -24 0 -13 -4 -18 -16 -18 -46 0 -22 3 -40 6 -40 4 0 6 -7 5 -16 0
-9 4 -19 10 -21 14 -5 34 40 28 63 -7 31 9 45 43 38 29 -6 31 -9 30 -48 -1
-29 2 -40 11 -38 7 1 22 -3 34 -9 l22 -12 -23 -18 -23 -19 38 -1 39 -1 -30 -9
c-35 -10 -55 -5 -55 15 0 7 -8 13 -17 12 -12 0 -19 7 -21 22 -2 12 -8 22 -14
22 -6 0 -7 -15 -3 -40 5 -31 3 -41 -8 -46 -25 -9 -29 -33 -5 -26 18 4 19 3 8
-17 -16 -31 -7 -61 31 -96 21 -20 30 -24 26 -12 -4 11 -1 17 8 17 8 0 15 -7
15 -15 0 -9 12 -18 30 -21 25 -6 30 -11 30 -36 0 -27 1 -28 16 -14 21 22 39
20 41 -4 1 -11 -4 -20 -13 -20 -35 0 6 -53 44 -56 15 -1 35 -2 45 -3 24 -2 22
-21 -3 -21 -27 0 -25 -13 5 -27 22 -10 25 -9 25 7 0 10 9 22 21 25 28 9 35 -1
16 -23 -10 -10 -17 -25 -17 -33 0 -19 44 -59 64 -59 9 0 16 -8 16 -20 0 -12 7
-20 17 -20 9 0 40 -25 69 -55 52 -53 91 -70 120 -52 18 11 50 -25 46 -51 -4
-24 13 -52 30 -52 6 0 5 7 -2 15 -7 9 -10 18 -7 21 9 9 67 -28 67 -43 0 -6 16
-29 35 -50 19 -21 35 -32 35 -25 0 6 7 12 15 12 8 0 19 -17 25 -41 9 -31 14
-39 23 -30 18 18 28 13 15 -8 -10 -17 -9 -23 6 -40 24 -26 36 -27 36 -1 0 11
7 20 15 20 18 0 19 -5 3 -29 -10 -16 -5 -24 33 -60 24 -22 50 -41 57 -41 7 0
23 -5 35 -12 12 -7 32 -11 43 -9 12 1 24 -5 27 -13 4 -9 2 -16 -3 -16 -6 0
-10 4 -10 10 0 5 -11 9 -25 8 -14 -1 -25 -5 -25 -8 0 -21 117 -110 144 -110 9
0 16 -6 15 -12 -3 -28 2 -38 21 -38 11 0 20 -7 20 -15 0 -8 4 -15 9 -15 5 0
35 -25 65 -56 31 -30 56 -60 56 -65 0 -5 6 -9 14 -9 8 0 16 -7 20 -15 4 -11
13 -14 31 -9 18 4 25 2 25 -9 0 -8 16 -22 35 -31 26 -13 35 -23 35 -42 0 -24
3 -25 33 -19 28 6 30 5 14 -7 -17 -12 -15 -16 22 -43 22 -17 41 -36 41 -44 0
-9 7 -11 21 -8 15 4 19 2 15 -9 -3 -9 1 -14 12 -14 21 0 74 -45 202 -174 30
-31 60 -56 66 -56 5 0 23 -13 39 -30 16 -16 38 -30 49 -30 31 0 66 -11 66 -21
0 -4 -11 -6 -25 -3 -33 6 -34 -19 -1 -34 19 -9 25 -8 30 4 3 8 10 14 16 14 6
0 5 -8 -2 -20 -11 -18 -10 -23 8 -38 12 -9 25 -26 29 -37 5 -14 9 -16 12 -7 3
9 15 -2 30 -27 24 -41 42 -53 44 -28 0 6 3 5 7 -4 9 -21 177 -181 203 -193 10
-5 19 -12 19 -16 0 -8 159 -170 167 -170 3 0 16 -10 28 -22 50 -49 94 -88 99
-88 4 0 21 -15 39 -33 17 -18 55 -50 82 -72 28 -22 65 -54 84 -72 26 -24 41
-31 60 -28 14 3 20 2 14 -1 -7 -3 -13 -10 -13 -14 0 -13 49 -60 63 -60 7 0 23
-16 37 -35 14 -19 32 -37 40 -40 8 -3 48 -37 89 -75 40 -39 78 -70 83 -70 6 0
31 -22 56 -50 25 -27 52 -50 59 -50 7 0 13 -7 13 -15 0 -8 4 -15 8 -15 5 0 25
-16 45 -35 20 -19 43 -35 52 -35 8 0 15 -8 15 -18 0 -10 21 -36 47 -58 26 -21
74 -65 107 -96 33 -32 64 -58 69 -58 4 0 24 -17 42 -37 19 -21 35 -34 35 -30
0 5 7 2 15 -7 8 -8 15 -21 15 -28 0 -8 16 -20 36 -27 19 -7 38 -19 41 -27 3
-8 11 -14 19 -14 8 0 13 -3 13 -7 -3 -20 2 -33 14 -33 7 0 23 -13 37 -30 14
-16 30 -30 36 -30 7 0 14 -7 18 -15 3 -8 12 -15 21 -15 8 0 15 -9 15 -20 0
-11 4 -20 9 -20 5 0 71 -61 147 -135 75 -74 143 -135 150 -135 7 0 19 -10 25
-22 16 -30 168 -182 198 -197 12 -7 25 -10 28 -7 6 5 1 111 -57 1426 -22 487
-42 910 -45 940 -3 30 -7 116 -10 190 -3 74 -7 173 -10 220 -2 47 -7 134 -11
193 -5 86 -9 107 -20 103 -18 -7 -25 6 -13 24 8 13 10 13 19 0 8 -11 10 -2 8
35 -3 47 -5 50 -29 50 -21 -1 -26 4 -25 22 1 24 11 30 21 13 3 -5 11 -10 17
-10 15 0 1 142 -15 152 -9 6 -9 10 2 17 12 8 13 31 6 133 -5 67 -9 142 -9 165
-1 23 -4 44 -8 48 -3 4 -4 41 -1 82 4 45 2 74 -3 71 -5 -4 -10 76 -12 191 -1
108 -5 237 -8 286 -4 50 -6 109 -6 133 1 39 -5 47 -30 43 -10 -1 -10 11 1 28
7 11 11 10 19 -5 8 -14 10 0 6 56 -3 41 -9 144 -13 229 -7 110 -13 156 -23
162 -11 7 -11 9 1 9 11 0 12 21 6 118 -5 64 -9 131 -9 147 l-1 30 -790 2
c-476 1 -798 -2 -810 -8z m42 -202 c9 -6 11 -27 6 -68 -6 -56 -5 -59 21 -70
14 -7 26 -16 26 -21 0 -4 11 -8 25 -8 14 0 25 -5 25 -10 0 -7 -21 -9 -61 -4
-47 5 -63 4 -71 -7 -8 -11 -9 -10 -4 4 4 12 0 17 -14 17 -11 0 -20 -7 -20 -15
0 -8 -4 -15 -10 -15 -5 0 -10 7 -10 15 0 8 -13 23 -29 33 l-29 18 24 21 c17
16 24 18 24 7 0 -17 16 -18 26 -2 4 6 2 14 -4 16 -16 5 -15 69 1 87 13 16 54
17 74 2z m-741 -351 c9 -9 13 -30 12 -52 -3 -34 -6 -37 -38 -40 -69 -7 -83
-13 -69 -30 10 -13 10 -17 -2 -25 -8 -5 -20 -9 -27 -9 -9 0 -11 -14 -6 -54 4
-33 2 -56 -4 -60 -6 -3 -13 -2 -16 3 -3 5 -15 7 -26 4 -11 -3 -20 0 -20 6 0 6
9 11 20 11 17 0 20 7 20 40 0 32 -4 40 -18 40 -11 0 -18 7 -18 21 0 16 5 19
24 14 16 -4 21 -2 17 5 -4 6 1 20 11 31 14 16 26 19 51 14 29 -5 34 -3 43 20
5 14 16 25 25 25 8 0 15 4 15 9 0 4 -18 8 -40 8 -22 0 -43 -4 -46 -8 -6 -11
-34 -12 -34 -1 0 6 80 38 103 41 5 1 15 -6 23 -13z m-758 -201 c-1 -12 3 -30
11 -39 11 -13 11 -21 -3 -50 -24 -51 -21 -56 34 -56 39 0 50 -3 50 -16 0 -14
-7 -15 -46 -9 -30 4 -44 3 -40 -4 9 -14 -13 -24 -27 -12 -7 5 -24 8 -38 5 -13
-3 -20 -2 -14 3 10 8 18 30 17 48 -4 53 -5 55 -49 55 -53 0 -68 20 -16 21 21
1 46 1 56 0 9 -1 17 3 17 8 0 6 -6 11 -12 12 -10 0 -10 2 0 6 6 2 12 10 12 16
0 16 31 47 42 41 5 -3 8 -16 6 -29z m2445 -278 c-3 -17 2 -26 21 -35 14 -6 26
-19 26 -27 0 -8 11 -21 25 -27 30 -14 32 -24 5 -38 -11 -6 -19 -18 -19 -28 1
-15 2 -15 6 1 4 14 8 16 19 6 20 -17 17 -47 -6 -59 -17 -9 -20 -8 -20 10 0 30
-34 25 -50 -7 l-12 -28 -10 25 c-13 35 -2 71 19 63 11 -4 14 -3 9 5 -5 8 0 12
13 12 14 0 21 6 21 20 0 11 -6 20 -14 20 -7 0 -27 7 -42 15 -37 19 -54 19 -54
0 0 -15 -10 -19 -44 -15 -24 2 -79 -20 -89 -37 -11 -18 -27 -16 -27 2 0 8 7
15 15 15 8 0 15 4 15 9 0 6 12 16 28 24 15 7 26 19 25 25 -2 7 10 12 31 12 40
0 56 18 33 35 -27 20 -20 25 32 25 45 0 48 -2 44 -23z m-318 -258 c-4 -12 -1
-19 7 -20 7 -1 33 -3 57 -5 33 -3 47 0 57 14 7 9 16 13 20 9 5 -4 4 -11 -1
-15 -14 -10 -12 -69 2 -83 7 -7 16 -9 20 -4 5 4 2 10 -4 12 -20 7 -15 23 7 23
11 0 28 5 39 11 11 8 32 9 57 5 36 -7 38 -9 19 -22 -22 -16 -55 -19 -55 -4 0
6 -7 10 -15 10 -18 0 -20 -17 -3 -22 20 -7 -40 -41 -78 -45 -19 -2 -34 1 -34
7 0 5 5 10 10 10 16 0 12 36 -5 50 -13 11 -21 6 -51 -28 -36 -42 -61 -49 -86
-24 -9 9 -7 12 9 12 16 0 22 8 26 37 8 48 -2 63 -20 29 -8 -15 -17 -25 -20
-22 -3 3 2 17 11 30 18 29 21 40 6 31 -12 -8 -32 4 -25 14 2 5 16 9 30 9 20 0
24 -4 20 -19z"/>
<path d="M8220 17320 c0 -5 -19 -13 -42 -17 -24 -3 -38 -8 -31 -10 18 -6 4
-33 -17 -33 -26 0 -35 -19 -18 -36 15 -15 48 -9 48 9 0 5 9 2 20 -8 11 -10 20
-22 20 -27 0 -5 7 -16 15 -24 17 -18 20 -44 4 -44 -5 0 -8 -4 -5 -9 4 -5 -2
-7 -12 -4 -14 3 -18 11 -14 30 l5 25 -27 -23 c-18 -15 -23 -26 -16 -33 5 -5
10 -18 10 -28 0 -10 4 -18 9 -18 5 0 11 -9 14 -20 4 -17 0 -20 -31 -20 -52 0
-32 -11 25 -13 42 -2 48 -5 51 -25 5 -36 27 -19 24 19 -8 125 -5 160 18 185
16 16 35 24 59 25 28 1 30 3 11 6 -14 3 -29 11 -33 19 -10 18 -27 18 -27 1 0
-18 -32 -47 -52 -47 -21 0 -9 65 12 66 44 3 46 4 30 14 -12 8 -11 10 8 10 12
0 22 -4 22 -10 0 -5 16 -10 35 -10 24 0 35 5 35 15 0 10 -10 15 -33 15 -18 0
-42 7 -53 15 -22 16 -64 20 -64 5z"/>
<path d="M9080 17321 l45 -7 -47 -4 c-28 -3 -50 -1 -52 5 -2 5 -7 2 -11 -8
-10 -25 3 -34 58 -36 24 -1 21 -18 -4 -24 -12 -3 -18 -10 -15 -16 4 -6 -9 -17
-29 -25 -19 -8 -35 -21 -35 -29 0 -8 -9 -17 -20 -20 -23 -6 -24 -3 -10 23 8
15 6 17 -11 13 -12 -3 -25 -18 -31 -34 -5 -15 -16 -30 -24 -33 -8 -3 -14 -12
-14 -21 0 -17 -17 -20 -22 -4 -2 6 -13 9 -23 6 -19 -5 -19 -5 3 -12 12 -4 22
-11 22 -15 0 -4 14 -10 32 -14 26 -5 39 -1 67 22 20 15 51 34 69 41 21 9 34
23 39 40 3 14 16 35 28 47 l23 21 16 -34 c9 -18 16 -40 16 -48 0 -18 -16 -20
-23 -2 -3 6 -6 -1 -6 -17 -1 -27 -3 -28 -46 -24 -24 1 -40 -1 -36 -5 5 -5 50
-12 100 -17 51 -5 98 -13 104 -18 7 -5 23 -6 37 -2 20 6 22 9 9 14 -10 4 -25
6 -35 4 -13 -2 -19 3 -20 18 -3 45 -37 62 -47 23 -3 -12 -10 -18 -16 -14 -14
8 -15 85 -1 85 5 0 18 10 30 22 l20 22 -22 13 c-13 7 -17 12 -10 13 6 0 12 4
12 9 0 5 -9 7 -20 4 -13 -4 -20 0 -20 9 0 20 -44 38 -88 36 -36 -1 -36 -1 8
-7z"/>
<path d="M10414 17238 c1 -27 -3 -42 -10 -41 -7 1 -14 -6 -17 -17 -4 -15 3
-22 30 -31 20 -6 38 -20 43 -34 7 -17 14 -21 34 -18 14 3 26 10 26 15 0 5 12
8 28 7 53 -4 67 2 90 36 26 41 27 45 8 45 -8 0 -16 4 -18 8 -1 5 -16 15 -33
23 -17 9 -29 22 -29 32 1 9 -5 17 -13 17 -10 0 -14 -7 -10 -20 3 -13 0 -20
-10 -20 -8 0 -12 4 -8 9 6 10 -25 31 -44 31 -6 0 -11 -11 -11 -25 0 -16 -6
-25 -15 -25 -9 0 -20 11 -25 25 -13 35 -16 31 -16 -17z"/>
<path d="M11560 17255 c0 -9 10 -15 26 -15 14 0 23 -4 19 -10 -3 -5 -19 -10
-36 -10 -19 0 -29 -5 -29 -15 0 -11 -8 -13 -32 -8 -20 4 -29 3 -25 -4 4 -6 28
-14 54 -17 71 -10 85 -16 75 -29 -5 -7 -9 -22 -10 -34 -1 -20 4 -23 42 -23
l42 0 -10 -45 c-7 -30 -15 -44 -23 -40 -7 2 -13 -2 -13 -10 0 -8 7 -15 15 -15
8 0 15 -5 15 -10 0 -6 8 -5 20 2 18 11 18 14 5 24 -22 16 -18 24 11 24 20 0
24 4 20 18 -7 21 8 47 22 38 18 -11 34 22 27 54 -6 26 -4 32 14 37 28 7 27 17
-4 37 -32 21 -41 20 -76 -5 l-29 -20 0 30 c0 20 -5 31 -14 31 -7 0 -27 7 -42
15 -37 19 -64 19 -64 0z"/>
<path d="M8400 17114 c0 -13 -3 -14 -15 -4 -8 6 -19 9 -25 5 -17 -11 0 -26 28
-25 45 3 48 0 14 -15 -18 -8 -31 -19 -28 -24 8 -12 -20 -22 -39 -15 -8 4 -15
12 -15 20 0 8 -4 14 -10 14 -10 0 -15 -27 -11 -67 1 -12 -8 -28 -19 -36 -18
-12 -20 -21 -15 -51 4 -20 11 -36 15 -36 5 0 6 -10 3 -21 -5 -19 -4 -20 16
-10 15 9 21 21 21 46 0 19 -4 35 -10 35 -15 0 -12 26 6 40 8 8 14 9 13 4 -3
-19 1 -34 10 -34 17 0 9 60 -8 61 -12 0 -11 3 4 9 13 5 24 4 30 -5 8 -10 13
-10 23 1 7 7 11 19 10 26 -2 8 8 13 26 13 25 0 29 4 32 33 3 27 1 32 -17 32
-11 0 -17 5 -14 10 3 6 -1 10 -9 10 -9 0 -16 -7 -16 -16z"/>
<path d="M8628 16993 c-27 -32 -30 -54 -8 -60 23 -6 27 -38 5 -47 -8 -3 -15
-13 -15 -23 0 -10 -9 -24 -21 -31 -24 -15 -39 -8 -21 10 7 7 12 18 12 26 0 8
7 20 17 27 19 14 10 35 -16 35 -12 0 -18 -7 -17 -17 0 -10 -9 -22 -21 -28 -19
-8 -23 -18 -23 -50 0 -43 -27 -85 -55 -85 -19 0 -65 21 -65 30 0 4 9 10 21 13
13 4 19 12 17 23 -4 25 -28 30 -28 6 0 -12 -9 -22 -22 -26 -34 -9 -37 -8 -31
13 5 20 -32 37 -43 19 -8 -12 35 -58 53 -58 8 0 16 -7 19 -15 4 -9 19 -15 35
-15 16 0 29 -4 29 -9 0 -6 21 -11 48 -13 34 -2 47 -7 47 -18 0 -8 9 -15 20
-15 17 0 20 7 20 43 0 36 3 44 23 49 18 4 20 8 11 19 -17 21 10 18 33 -3 11
-9 18 -11 18 -5 0 7 -4 12 -10 12 -17 0 -12 90 5 96 21 8 19 34 -2 34 -16 1
-16 2 -3 13 20 16 25 48 8 58 -19 12 -23 11 -40 -8z"/>
<path d="M7332 12335 c-25 -14 -15 -29 12 -19 9 3 16 1 16 -5 0 -6 -4 -11 -10
-11 -5 0 -10 -7 -10 -16 0 -11 6 -13 19 -9 13 4 34 -4 60 -20 23 -16 51 -26
68 -24 15 1 36 -1 45 -6 10 -4 30 -2 45 3 23 8 24 11 8 11 -25 1 -45 19 -45
41 0 20 -42 37 -110 46 -30 4 -59 10 -65 14 -5 4 -21 1 -33 -5z"/>
<path d="M6149 12123 c-6 -6 -26 -17 -45 -23 -19 -6 -34 -16 -34 -20 0 -5 -7
-7 -15 -4 -9 4 -15 0 -15 -10 0 -9 7 -16 15 -16 8 0 15 -4 15 -10 0 -5 -5 -10
-11 -10 -8 0 -9 -4 0 -13 6 -8 9 -16 6 -18 -2 -3 5 -6 17 -6 11 -1 28 -9 37
-17 19 -18 66 -22 56 -6 -11 18 27 24 40 7 22 -31 35 -19 37 36 3 85 0 109
-14 118 -19 12 -77 7 -89 -8z"/>
<path d="M7272 11965 c-7 -8 -22 -15 -32 -15 -17 0 -20 -7 -20 -50 0 -38 4
-50 15 -50 8 0 15 -7 15 -15 0 -7 6 -18 13 -22 6 -4 19 -21 27 -37 9 -18 28
-34 49 -41 19 -6 37 -17 39 -23 2 -7 10 -12 18 -12 8 0 14 -4 14 -10 0 -20 27
-10 40 15 7 14 19 25 26 25 7 0 15 13 19 29 3 16 12 34 19 40 14 12 73 4 82
-10 11 -18 24 -8 24 16 0 15 -7 28 -17 32 -10 3 -24 11 -31 16 -17 13 -143 57
-165 57 -10 0 -20 7 -23 15 -3 8 -21 17 -40 21 -19 3 -34 12 -34 20 0 18 -21
17 -38 -1z"/>
<path d="M7306 10728 c-7 -71 -3 -83 37 -99 37 -16 77 -14 95 4 10 11 8 18
-13 41 -14 15 -25 31 -25 35 0 28 -33 69 -59 73 -28 4 -29 3 -35 -54z"/>
<path d="M9917 10233 c-15 -14 -6 -31 13 -26 11 3 20 1 20 -5 0 -5 -9 -12 -20
-15 -11 -3 -20 -1 -20 4 0 5 -10 9 -21 9 -17 0 -20 -5 -16 -21 7 -26 -17 -36
-38 -15 -21 20 -34 20 -42 0 -7 -19 26 -55 91 -97 28 -17 69 -49 91 -69 22
-21 44 -38 48 -38 5 0 27 -15 50 -34 23 -18 56 -41 72 -49 33 -17 70 -52 113
-107 24 -30 29 -46 30 -102 2 -45 -1 -68 -9 -68 -6 0 -8 -7 -5 -16 3 -9 0 -25
-8 -36 -8 -11 -12 -27 -9 -35 4 -10 0 -13 -12 -11 -13 2 -21 -8 -31 -42 -8
-25 -14 -59 -14 -76 0 -34 -13 -44 -56 -44 -15 0 -24 -6 -24 -15 0 -20 -29
-19 -37 2 -5 14 -8 13 -14 -5 -6 -15 -17 -22 -36 -23 -15 0 -50 -2 -78 -5 -29
-2 -45 -1 -37 4 10 7 10 15 2 37 -14 37 -66 90 -75 76 -3 -6 -17 -11 -30 -11
-16 0 -25 -7 -29 -26 -6 -24 -10 -25 -49 -19 -68 10 -77 15 -77 38 -1 19 -2
20 -13 6 -7 -9 -25 -19 -40 -23 -35 -8 -27 -23 18 -32 19 -3 35 -10 35 -15 0
-5 10 -9 23 -9 13 0 27 -4 33 -8 25 -23 129 -44 221 -44 54 0 105 1 113 1 28
3 55 -4 63 -16 4 -7 22 -13 38 -13 17 0 43 -8 57 -19 15 -10 43 -23 62 -29 19
-6 63 -20 98 -31 35 -11 80 -34 101 -50 22 -17 41 -31 44 -31 5 0 22 -14 112
-90 106 -91 138 -115 172 -133 19 -10 48 -31 64 -47 17 -15 46 -36 65 -45 34
-16 64 -58 51 -72 -4 -3 -18 -1 -32 5 -14 6 -61 15 -105 18 -77 7 -82 8 -116
46 -19 21 -42 54 -51 73 -9 19 -20 35 -25 35 -4 0 -8 6 -8 13 -1 44 -117 70
-289 66 l-126 -4 -48 33 c-26 17 -54 32 -62 32 -8 0 -18 6 -22 13 -9 14 -19
20 -145 84 -51 26 -111 59 -133 74 -59 40 -113 61 -416 162 -52 18 -107 40
-122 50 -23 15 -77 86 -77 102 0 7 48 -4 90 -22 19 -8 44 -19 55 -23 11 -5 31
-12 45 -16 14 -3 32 -12 40 -19 8 -7 29 -15 47 -18 26 -5 33 -3 38 13 3 11 3
25 0 30 -4 6 -1 17 5 25 19 23 4 85 -20 85 -10 0 -21 -4 -24 -9 -3 -5 -23 -11
-44 -12 -34 -4 -37 -2 -37 20 0 23 -3 24 -65 26 -79 2 -142 14 -134 26 9 15
-64 14 -80 -1 -5 -5 -16 -5 -25 -1 -65 31 -77 42 -92 82 -23 60 -113 147 -203
195 -45 25 -153 72 -186 82 -77 24 -153 41 -160 37 -4 -3 -34 4 -66 15 -74 25
-85 25 -164 1 -36 -11 -110 -28 -165 -37 -63 -11 -107 -23 -119 -35 -15 -14
-22 -15 -38 -6 -15 10 -25 8 -51 -7 -17 -10 -68 -27 -112 -38 -44 -10 -90 -25
-102 -33 -12 -8 -32 -15 -45 -15 -13 0 -74 -1 -135 -2 -86 -3 -113 0 -113 9 0
17 -30 17 -44 0 -8 -9 -25 -11 -56 -6 -25 3 -34 7 -21 7 18 2 22 5 14 13 -12
12 -56 2 -48 -11 3 -5 -11 -14 -30 -21 -19 -7 -35 -18 -35 -25 0 -8 -13 -10
-40 -7 -26 4 -40 2 -40 -6 0 -6 -9 -11 -19 -11 -11 0 -23 -4 -26 -10 -3 -5 1
-10 11 -10 14 0 15 -2 3 -16 -7 -9 -14 -40 -14 -69 -1 -30 -6 -60 -13 -67 -6
-8 -9 -23 -6 -34 10 -39 -24 -51 -78 -29 -13 5 -18 2 -18 -9 0 -12 10 -16 38
-17 26 -1 30 -3 13 -6 -31 -6 -54 -29 -45 -44 4 -7 8 -21 9 -33 4 -32 4 -33
18 -33 6 0 20 -4 30 -8 10 -4 17 -3 17 5 0 6 5 8 10 5 6 -3 10 4 11 17 0 13 3
17 6 10 3 -8 13 0 27 20 30 45 37 66 23 72 -7 3 -1 3 13 0 32 -8 32 -8 31 -36
-1 -13 -1 -92 -1 -176 0 -157 -13 -231 -45 -256 -7 -6 -15 -20 -17 -31 -3 -15
-11 -7 -31 34 -15 30 -25 57 -22 59 3 3 5 0 5 -6 0 -18 20 -14 26 6 4 9 12 31
20 49 14 31 10 63 -7 63 -5 0 -9 -16 -9 -36 0 -42 -23 -43 -28 -1 -3 23 -5 25
-17 13 -8 -8 -23 -12 -33 -9 -16 4 -20 -3 -26 -35 -3 -22 -13 -42 -21 -46 -8
-3 -15 -12 -15 -21 0 -8 -4 -15 -9 -15 -13 0 -40 -61 -34 -76 8 -21 -44 -37
-81 -24 -33 12 -50 -2 -40 -33 3 -11 -1 -19 -13 -23 -46 -15 -63 -28 -63 -51
0 -30 -16 -62 -47 -90 -12 -12 -23 -27 -23 -33 0 -16 24 -7 36 14 8 14 13 15
19 6 8 -13 -5 -30 -26 -34 -8 -2 -22 -6 -31 -11 -10 -4 -32 -2 -49 4 -33 11
-49 5 -75 -28 -8 -10 -13 -11 -18 -3 -4 7 -12 12 -17 12 -6 0 -8 -4 -5 -9 6
-9 -28 -19 -64 -20 -8 0 -55 -5 -105 -12 -49 -6 -109 -9 -132 -6 -23 2 -45 1
-50 -4 -17 -17 -217 -7 -238 12 -5 5 -30 9 -55 9 -34 0 -52 5 -65 20 -19 21
-45 27 -45 10 0 -7 -6 -8 -17 -1 -9 5 -42 7 -72 4 -37 -4 -52 -3 -47 5 3 6 -3
13 -14 17 -11 4 -18 10 -15 15 3 4 -2 10 -10 14 -8 3 -15 1 -15 -4 0 -6 -11
-5 -25 2 -14 6 -25 16 -25 22 0 6 -14 22 -30 35 -26 20 -30 30 -30 72 0 37 -5
54 -20 66 -13 12 -18 24 -14 40 4 13 1 30 -6 38 -10 12 -10 18 1 31 21 25 38
215 28 319 -4 50 -9 148 -10 218 -1 70 -5 130 -9 132 -4 2 -8 43 -9 90 0 48
-5 94 -9 103 -5 9 -7 44 -5 77 6 105 -32 244 -59 217 -5 -5 -10 -36 -11 -68
-2 -47 1 -59 13 -59 20 0 28 -21 29 -72 1 -31 -4 -45 -17 -52 -15 -8 -19 -24
-20 -95 0 -71 -4 -89 -21 -107 -18 -20 -20 -31 -14 -96 4 -52 3 -73 -6 -73 -6
0 -11 5 -11 11 0 6 -6 9 -12 6 -7 -2 -12 -10 -10 -17 1 -7 -2 -18 -9 -26 -6
-8 -9 -23 -6 -34 3 -11 0 -18 -6 -17 -6 1 -12 -4 -13 -10 -1 -7 -2 -17 -3 -22
-1 -8 -26 -15 -84 -24 -10 -2 -22 -9 -26 -16 -6 -9 -10 -6 -14 9 -3 12 -10 19
-16 16 -6 -4 -19 -2 -30 4 -17 8 -26 5 -54 -20 -19 -16 -40 -30 -47 -30 -6 0
-18 -7 -26 -15 -9 -8 -23 -15 -32 -15 -18 0 -82 -55 -82 -71 0 -5 -8 -9 -18
-9 -10 0 -25 -11 -32 -25 -7 -14 -17 -25 -22 -25 -12 0 -48 -38 -48 -52 0 -7
-5 -5 -11 5 -12 20 -39 23 -39 4 0 -7 5 -18 12 -25 9 -9 9 -12 0 -12 -7 0 -12
-6 -12 -13 0 -6 -14 -18 -30 -25 -17 -8 -27 -18 -24 -24 4 -6 -1 -8 -15 -3
-12 4 -21 2 -21 -4 0 -6 -11 -21 -25 -33 -14 -12 -25 -26 -25 -32 0 -6 -24
-36 -52 -68 -82 -87 -117 -132 -118 -147 0 -7 -11 -22 -25 -33 -14 -11 -25
-25 -25 -33 0 -7 -7 -18 -16 -26 -9 -7 -32 -46 -51 -87 -28 -57 -43 -76 -65
-84 -15 -5 -28 -14 -28 -19 0 -5 -8 -9 -18 -9 -10 0 -27 -7 -38 -15 -10 -8
-26 -15 -35 -15 -9 0 -43 -13 -75 -30 -32 -16 -66 -30 -75 -30 -9 0 -22 -7
-29 -15 -7 -8 -20 -15 -29 -15 -10 0 -26 -7 -37 -15 -10 -8 -28 -15 -39 -15
-11 0 -33 -9 -49 -19 -17 -11 -33 -18 -38 -15 -4 3 -8 1 -8 -3 0 -5 -26 -22
-57 -38 -32 -17 -60 -33 -61 -37 -2 -5 -15 -8 -28 -8 -14 0 -34 -11 -47 -26
-12 -14 -31 -30 -42 -35 -39 -18 -90 -51 -102 -65 -6 -9 -14 -15 -17 -15 -17
2 -24 -2 -65 -39 -25 -22 -50 -40 -57 -40 -7 0 -14 -4 -16 -8 -1 -5 -32 -28
-66 -52 -35 -24 -66 -49 -69 -56 -3 -8 -11 -14 -19 -14 -7 0 -21 -11 -30 -25
-9 -14 -21 -25 -28 -25 -14 0 -136 -115 -136 -128 0 -5 -11 -13 -24 -16 -14
-3 -41 -22 -62 -41 -20 -19 -43 -35 -51 -35 -8 0 -43 -29 -78 -65 -52 -54 -65
-75 -80 -127 -16 -57 -16 -78 -6 -213 36 -474 53 -683 72 -875 20 -222 30
-356 49 -690 10 -180 24 -313 35 -331 8 -13 25 -365 31 -634 2 -143 9 -318 14
-390 6 -71 13 -191 16 -265 3 -74 10 -169 16 -210 6 -41 12 -82 13 -90 1 -8 5
-22 8 -30 3 -8 9 -50 12 -93 5 -53 11 -80 21 -84 8 -3 14 -13 14 -22 0 -17 47
-64 75 -74 8 -4 15 -15 15 -26 0 -10 8 -22 18 -25 48 -18 72 -38 72 -61 0 -13
6 -28 13 -32 17 -11 40 -62 42 -93 1 -14 -2 -40 -7 -57 -7 -25 -5 -39 8 -58
12 -19 15 -36 9 -72 -4 -27 -10 -52 -14 -58 -12 -15 -41 -111 -41 -134 0 -11
-4 -22 -9 -25 -12 -8 -7 -84 9 -128 l14 -38 3994 0 3994 0 -7 164 c-8 175 -3
226 22 226 9 0 13 6 10 15 -7 17 11 31 23 19 14 -14 165 -1 163 13 -2 9 9 11
44 6 44 -6 46 -5 41 15 -7 24 7 30 15 8 4 -9 14 -12 25 -9 20 5 20 5 0 38 -12
22 -18 47 -16 71 3 32 9 41 43 60 22 13 52 26 68 29 15 4 27 10 27 15 0 5 26
14 58 20 31 6 71 16 87 21 17 6 70 15 119 19 50 5 92 13 96 20 4 7 26 14 49
16 49 4 61 10 61 30 0 8 7 14 16 14 11 0 14 5 9 18 -28 72 -12 121 52 157 25
14 56 25 69 25 15 0 24 6 24 15 0 8 10 16 23 17 12 1 33 3 47 4 14 1 33 2 43
3 9 0 17 8 17 16 0 8 7 15 15 15 8 0 15 -5 15 -10 0 -12 53 -5 81 11 10 5 32
9 49 9 16 0 43 0 59 0 15 0 63 11 105 25 42 14 85 25 96 25 31 0 60 31 60 65
0 23 -9 38 -42 66 -37 32 -41 40 -40 78 1 23 8 55 17 70 12 24 24 30 80 41 38
7 69 19 72 26 3 8 15 14 27 14 11 0 50 9 86 20 36 11 75 20 88 20 12 0 22 4
22 9 0 14 37 20 50 7 8 -8 10 -7 5 7 -5 12 -2 17 11 17 30 0 93 25 111 43 16
15 15 18 -3 39 -39 45 -49 71 -44 118 4 34 10 47 28 55 12 5 22 13 22 17 0 5
7 8 15 8 7 0 18 6 22 14 4 7 24 16 43 19 36 6 117 26 203 50 26 7 47 17 47 21
-3 16 25 26 57 20 31 -6 99 12 155 42 14 8 34 14 43 14 9 0 13 5 10 10 -3 6
-1 11 4 11 84 10 116 75 64 127 -100 100 -117 160 -58 201 19 13 35 29 35 35
0 7 15 16 33 21 l32 10 6 105 c4 57 10 266 13 465 6 295 5 357 -6 344 -7 -9
-28 -24 -46 -33 -19 -10 -41 -30 -50 -46 -9 -16 -27 -35 -39 -41 -13 -7 -23
-16 -23 -21 0 -9 -27 -41 -97 -116 -24 -25 -43 -53 -43 -64 0 -10 -4 -18 -9
-18 -9 0 -71 -57 -71 -66 0 -4 -26 -32 -113 -121 -18 -18 -35 -33 -39 -33 -5
0 -8 -5 -8 -11 0 -12 -5 -18 -215 -230 -85 -86 -155 -160 -156 -165 0 -5 -27
-31 -59 -59 -32 -27 -59 -53 -59 -57 -2 -11 -51 -60 -130 -129 -41 -35 -91
-81 -110 -102 -36 -39 -119 -123 -140 -142 -6 -5 -26 -28 -43 -49 -18 -22 -44
-49 -57 -60 -14 -12 -33 -29 -43 -38 -10 -10 -22 -18 -27 -18 -6 0 -18 -13
-28 -30 -9 -17 -20 -30 -24 -30 -7 0 -96 -76 -183 -156 -32 -30 -64 -54 -70
-54 -7 0 -23 -12 -37 -26 -13 -14 -53 -49 -89 -77 -36 -28 -69 -57 -73 -64 -4
-7 -14 -13 -21 -13 -7 0 -25 -14 -41 -30 -16 -17 -32 -30 -37 -30 -8 0 -37
-22 -70 -53 -10 -9 -23 -17 -28 -17 -6 0 -13 -7 -16 -15 -3 -8 -22 -25 -42
-37 -49 -29 -108 -80 -104 -90 1 -4 -7 -8 -18 -8 -11 0 -20 -5 -20 -10 0 -6
-10 -14 -23 -19 -36 -14 -97 -58 -90 -65 4 -3 -3 -6 -15 -6 -12 0 -29 -11 -38
-25 -9 -14 -20 -25 -26 -25 -5 0 -19 -9 -31 -21 -12 -11 -40 -29 -62 -39 -50
-24 -72 -38 -113 -73 -18 -15 -40 -27 -48 -27 -26 0 -44 65 -53 197 -8 115
-36 314 -60 433 -13 62 -28 174 -42 305 -8 84 -8 145 1 255 15 175 14 211 -5
271 -10 29 -14 75 -13 130 3 83 -11 170 -72 449 -12 52 -27 131 -34 175 -35
209 -178 691 -268 902 -44 104 -56 163 -34 163 8 0 18 -5 21 -10 4 -6 33 -8
73 -4 56 5 71 10 89 32 13 15 23 35 23 45 0 13 8 17 36 17 47 0 41 18 -16 48
-46 23 -95 27 -179 14 -45 -7 -66 -28 -35 -34 14 -2 12 -6 -9 -17 -24 -13 -31
-12 -60 4 -19 10 -39 26 -45 36 -21 32 -74 261 -75 322 l-2 59 35 4 c19 3 55
0 80 -5 25 -5 81 -17 125 -26 152 -31 209 -46 259 -69 133 -62 254 -82 388
-66 170 21 229 23 297 12 36 -6 100 -14 141 -17 119 -9 171 -16 230 -30 30 -8
89 -16 130 -17 77 -3 87 0 187 58 27 16 36 17 65 6 43 -15 118 -16 155 -1 88
36 154 75 199 119 31 30 79 62 126 83 41 19 94 51 116 71 41 37 82 103 82 132
0 8 9 32 20 53 27 55 34 151 16 236 -8 39 -24 120 -35 180 -30 159 -57 288
-79 385 -11 47 -23 108 -27 135 -13 95 -104 451 -145 570 -51 149 -75 201
-148 335 -17 30 -38 79 -47 107 -19 58 -71 113 -108 113 -12 0 -42 12 -67 26
-85 49 -222 92 -364 114 -73 11 -92 4 -81 -30 23 -73 30 -135 24 -217 -1 -12
18 -50 41 -84 52 -77 90 -157 83 -175 -6 -16 -46 -29 -66 -21 -6 2 -18 22 -26
43 -19 55 -29 64 -54 55 -16 -6 -23 -19 -27 -47 -5 -37 -7 -39 -40 -40 -20 -1
-46 -6 -58 -13 -29 -15 -28 -8 3 23 43 43 30 138 -17 128 -14 -3 -8 11 10 24
16 11 15 13 -10 23 -16 6 -28 17 -28 25 0 8 -7 19 -17 24 -10 6 -14 16 -9 27
5 14 14 16 42 12 l36 -6 -6 42 c-15 94 -17 156 -7 176 9 16 7 24 -11 40 -41
37 -96 81 -100 81 -3 0 -4 -17 -3 -37 2 -46 -12 -76 -56 -124 -19 -20 -39 -45
-45 -55 -10 -16 -15 -17 -30 -6 -11 7 -27 15 -36 18 -10 4 -18 11 -18 16 0 6
-7 5 -15 -2 -12 -10 -15 -9 -15 7 0 12 -11 23 -31 30 -27 10 -31 16 -27 38 4
20 0 30 -17 41 -18 12 -22 22 -19 47 11 76 9 91 -8 95 -21 4 -56 31 -112 87
-23 22 -58 49 -80 60 -23 11 -45 33 -54 52 -9 18 -28 39 -44 45 -33 15 -33 16
-12 46 8 12 14 22 12 23 -2 0 -30 3 -64 5 l-60 5 -27 -38 c-15 -22 -27 -44
-27 -51 0 -6 -16 -14 -35 -18 -25 -4 -35 -11 -35 -25 0 -10 -9 -23 -20 -29
-26 -14 -25 -34 1 -51 20 -14 19 -14 -13 -14 -28 0 -33 -4 -36 -25 -4 -36 -23
-80 -34 -80 -5 0 -6 5 -2 11 5 8 -6 10 -34 7 -35 -3 -39 -1 -31 14 5 9 14 20
19 23 6 3 10 15 10 25 0 10 8 21 18 23 15 4 15 5 1 6 -18 1 -33 27 -23 42 13
21 -29 7 -51 -17 -21 -22 -27 -25 -40 -14 -13 10 -19 10 -33 -2 -28 -25 -48
-27 -93 -12 -33 12 -49 13 -67 4 -20 -9 -27 -7 -38 7 -7 10 -11 24 -9 31 2 6
-2 12 -10 12 -9 0 -12 -6 -9 -15 5 -12 2 -13 -12 -8 -39 14 -63 30 -57 36 3 4
0 14 -8 23 -11 13 -11 18 -1 21 20 7 14 22 -7 16 -17 -4 -18 -1 -11 37 4 22
15 47 25 54 26 19 11 55 -27 63 -16 3 -32 12 -35 19 -6 15 -16 18 -26 7z
m1491 -884 c17 -6 34 -19 37 -30 4 -10 19 -26 35 -35 24 -15 29 -25 32 -66 2
-34 -1 -48 -10 -48 -13 0 -12 -43 1 -56 4 -4 1 -14 -7 -23 -13 -16 -28 -56
-41 -115 -3 -16 -25 -47 -48 -70 -41 -39 -46 -41 -105 -42 l-61 0 -14 60 c-17
76 -15 122 10 211 30 108 73 195 100 201 13 4 23 10 23 15 0 12 10 11 48 -2z
m-816 -5626 c42 -45 61 -93 62 -153 0 -67 -16 -100 -49 -100 -19 0 -26 8 -39
48 -18 58 -36 154 -36 199 0 42 26 44 62 6z"/>
<path d="M13680 4160 c-36 -26 -81 -63 -100 -81 -31 -30 -69 -53 -147 -93 -13
-6 -23 -16 -23 -22 0 -13 -63 -64 -80 -64 -6 0 -13 -14 -17 -31 -5 -26 -9 -30
-30 -24 -19 4 -26 1 -30 -15 -3 -11 -14 -20 -25 -20 -10 0 -24 -5 -31 -11 -7
-5 -26 -19 -44 -29 -47 -28 -58 -54 -30 -73 22 -14 25 -13 55 19 18 19 28 34
22 34 -5 0 -10 5 -10 10 0 17 16 11 43 -16 14 -14 31 -23 37 -19 5 3 10 -1 10
-9 0 -20 -29 -35 -71 -38 -23 -2 -43 -13 -64 -35 -20 -22 -39 -33 -58 -33 -27
0 -28 2 -21 36 5 27 4 35 -5 30 -7 -4 -18 -3 -25 3 -9 8 -21 3 -47 -19 -19
-16 -41 -29 -50 -30 -9 0 -22 -6 -28 -14 -7 -8 -22 -17 -35 -20 -13 -3 -26
-15 -29 -26 -3 -11 -13 -20 -24 -20 -22 -1 -50 -21 -49 -35 1 -5 -9 -11 -22
-13 -13 -2 -20 -8 -16 -14 5 -7 2 -8 -5 -3 -8 4 -25 -1 -42 -14 -15 -11 -30
-21 -33 -21 -2 0 -27 -16 -56 -35 -29 -19 -58 -35 -66 -35 -8 0 -14 -4 -14
-10 0 -5 -7 -10 -15 -10 -8 0 -15 -4 -15 -10 0 -5 -8 -10 -19 -10 -10 0 -24
-7 -31 -15 -7 -8 -19 -15 -26 -15 -8 0 -14 -4 -14 -10 0 -5 -7 -10 -16 -10 -9
0 -28 -6 -42 -14 -15 -8 -38 -19 -52 -25 -14 -6 -32 -15 -40 -19 -49 -28 -84
-42 -103 -42 -16 0 -18 -3 -9 -9 10 -6 6 -10 -15 -14 -15 -3 -33 -14 -39 -24
-10 -17 -8 -18 27 -18 25 0 46 8 62 24 18 16 33 21 54 18 21 -3 34 1 49 18 11
12 18 28 16 35 -3 7 1 16 8 20 13 8 70 -10 70 -22 0 -4 6 -5 14 -2 8 3 12 13
9 24 -4 14 5 24 37 40 30 15 45 18 50 10 4 -7 15 1 30 23 19 27 28 32 51 29
21 -3 38 4 66 27 46 38 103 44 103 11 0 -11 5 -20 11 -20 12 0 1 -43 -12 -48
-5 -2 -9 -15 -9 -28 0 -21 -4 -24 -41 -24 -35 0 -40 2 -34 19 3 12 0 21 -10
25 -14 5 -19 -4 -16 -32 1 -7 -4 -11 -10 -10 -7 2 -18 -7 -24 -19 -9 -17 -14
-20 -23 -11 -9 9 -27 6 -77 -11 -36 -12 -70 -19 -76 -15 -8 4 -10 -8 -8 -39 4
-40 1 -47 -16 -50 -11 -2 6 -5 38 -6 31 0 57 -5 57 -11 0 -5 7 -10 16 -10 11
0 15 6 11 20 -4 16 0 20 23 20 36 0 52 -21 48 -61 -3 -29 1 -35 25 -43 20 -7
33 -7 46 1 10 6 35 15 56 19 23 4 39 13 42 24 4 13 20 19 66 24 67 7 93 20 46
23 -28 2 -59 23 -59 39 0 5 5 3 12 -4 18 -18 42 -14 56 9 10 15 16 18 26 10 9
-7 16 -7 24 1 19 19 27 0 12 -27 -7 -14 -13 -39 -13 -56 0 -25 -5 -31 -28 -36
-15 -3 -36 -18 -48 -34 -13 -17 -37 -33 -62 -39 -29 -8 -39 -16 -37 -28 5 -24
46 -27 70 -5 19 17 20 17 33 0 8 -11 28 -19 52 -20 21 -1 40 -5 43 -8 9 -11
100 -19 100 -9 0 6 -7 10 -16 10 -8 0 -13 4 -9 9 3 5 30 7 60 4 39 -4 55 -2
55 6 0 7 12 28 26 47 29 38 66 45 100 19 27 -20 32 -19 39 15 11 50 29 60 106
60 54 0 71 4 76 16 3 8 2 19 -3 23 -14 13 -84 23 -84 12 0 -5 12 -11 27 -13
22 -2 19 -5 -19 -13 -42 -10 -46 -9 -42 8 3 15 -1 17 -24 12 -17 -3 -35 0 -47
9 -19 15 -19 15 10 16 17 1 24 4 18 7 -7 2 -13 11 -13 19 0 8 -10 14 -25 14
-14 0 -25 -4 -25 -10 0 -5 -7 -10 -15 -10 -8 0 -15 7 -15 15 0 10 10 15 28 15
21 0 24 2 12 10 -12 8 -9 10 13 10 19 0 27 4 24 13 -3 8 -26 11 -81 9 l-76 -3
0 30 c0 34 26 44 32 14 3 -15 16 -18 81 -19 68 -2 78 0 72 14 -3 8 0 19 7 24
21 13 28 9 28 -12 0 -30 55 -28 63 2 5 18 8 19 21 9 10 -9 28 -11 50 -7 22 4
37 2 42 -5 5 -9 2 -10 -9 -6 -21 8 -32 -10 -17 -28 8 -10 17 -11 31 -5 10 6
28 14 39 20 12 6 21 6 25 0 8 -13 55 -13 75 0 9 6 17 5 22 -3 6 -9 8 -9 8 0 0
16 -20 28 -50 29 -14 1 -28 2 -32 3 -5 1 -8 15 -8 32 0 29 -2 31 -27 25 -83
-19 -93 -19 -93 -3 0 13 -8 15 -49 10 -42 -5 -49 -3 -53 14 -4 16 -17 21 -59
26 -48 6 -56 4 -79 -18 -14 -14 -29 -25 -33 -25 -10 0 3 102 13 114 5 4 14 4
22 0 21 -14 102 1 93 16 -3 6 -2 10 3 10 11 0 30 44 34 80 2 14 8 32 13 40 7
11 11 8 21 -15 8 -19 13 -23 14 -12 0 9 5 17 11 17 5 0 8 -4 4 -9 -10 -17 16
-24 41 -10 17 9 22 18 18 31 -4 13 0 18 15 18 12 0 21 4 21 9 0 11 -35 21 -77
21 -56 0 -46 18 14 26 32 4 52 9 46 11 -7 3 -13 9 -13 15 0 12 69 2 86 -13 6
-5 14 -6 17 -2 15 15 5 23 -28 23 -19 0 -35 4 -35 9 0 12 -47 61 -60 61 -5 0
-10 5 -10 10 0 6 -14 10 -31 10 -33 0 -59 19 -59 45 0 17 46 39 66 31 6 -2 17
1 23 7 8 8 11 8 11 -1 0 -7 -4 -12 -10 -12 -5 0 -10 -4 -10 -10 0 -5 9 -10 20
-10 11 0 20 5 20 11 0 11 66 9 110 -2 9 -3 16 4 18 17 4 31 42 40 42 11 1 -21
1 -21 15 3 l13 25 4 -35 c3 -32 4 -33 14 -15 12 22 27 326 16 324 -4 0 -36
-22 -72 -49z"/>
<path d="M12511 3062 c-17 -12 -47 -17 -92 -18 -47 -1 -72 -6 -83 -17 -10 -9
-25 -13 -38 -10 -31 8 -69 38 -60 48 4 4 -9 5 -28 1 -19 -4 -44 -8 -55 -9 -11
-1 -30 -8 -42 -15 -12 -6 -30 -12 -41 -12 -10 0 -41 -11 -68 -25 -27 -14 -55
-25 -61 -25 -7 0 -13 -5 -13 -11 0 -5 -4 -8 -9 -4 -5 3 -13 0 -17 -6 -5 -9 14
-10 72 -5 43 4 89 10 102 13 16 4 22 1 22 -11 0 -9 16 -32 36 -51 l36 -35 -46
0 c-34 0 -50 6 -66 23 -20 21 -22 21 -34 5 -7 -10 -24 -17 -37 -17 -17 1 -19
3 -6 6 10 3 17 14 17 29 0 27 -17 33 -26 9 -4 -8 -17 -15 -30 -15 -15 0 -24
-6 -24 -15 0 -15 -24 -22 -72 -23 -22 0 -28 5 -28 22 -1 19 -2 20 -13 4 -8
-10 -35 -20 -65 -24 -29 -4 -55 -11 -58 -15 -3 -5 -12 -9 -21 -9 -11 0 -14 6
-10 23 3 12 0 30 -8 41 -14 18 -15 18 -38 -1 -14 -10 -50 -27 -81 -38 -61 -21
-68 -29 -34 -38 15 -4 30 0 43 13 32 30 85 46 96 29 14 -23 10 -48 -11 -66
-11 -10 -20 -24 -20 -32 0 -8 -3 -12 -6 -9 -3 4 -21 0 -40 -8 -19 -8 -34 -11
-34 -7 0 3 -10 -3 -22 -14 -13 -12 -34 -23 -46 -25 l-24 -3 22 -25 c18 -21 24
-23 41 -11 12 7 23 10 26 7 3 -3 14 -1 24 5 22 11 72 1 63 -13 -5 -8 19 -7
136 8 96 12 110 12 119 -3 7 -13 42 -15 221 -16 154 0 215 3 218 11 5 15 35
15 49 1 8 -8 28 -8 70 -1 39 7 60 7 64 0 8 -12 75 -2 84 12 10 16 -23 38 -50
33 -20 -4 -24 -2 -19 11 3 9 15 16 25 16 10 0 19 5 19 10 0 6 -8 10 -17 8 -10
-2 -22 6 -27 18 -6 13 -26 27 -47 33 -50 15 -52 15 -47 -16 3 -16 2 -39 -3
-53 l-7 -25 -7 23 c-8 25 -25 30 -25 7 0 -18 -20 -20 -21 -2 -1 6 -2 36 -3 64
0 29 -4 53 -8 53 -5 0 -8 -7 -8 -15 0 -23 -41 -19 -47 5 -3 11 -10 17 -15 14
-5 -3 -7 -12 -4 -20 7 -19 -1 -18 -25 5 -24 22 -18 41 12 41 10 0 19 4 19 10
0 5 7 7 16 3 8 -3 26 0 40 7 19 10 29 11 50 2 14 -7 29 -10 34 -7 4 3 13 -2
20 -10 18 -22 37 -18 43 7 4 12 9 19 13 15 4 -4 13 -2 21 5 10 8 17 8 25 0 7
-7 25 -12 40 -12 23 0 28 4 28 24 0 22 3 23 52 18 50 -5 51 -4 35 12 -9 10
-17 22 -17 27 0 5 -21 9 -48 9 -38 0 -50 4 -61 22 -10 16 -10 23 -2 26 15 5
14 22 -1 21 -7 0 -24 -8 -37 -17z"/>
</g>
</svg>
